<mxfile host="app.diagrams.net" modified="2022-12-21T09:25:48.620Z" agent="5.0 (Windows NT 10.0; Win64; x64) AppleWebKit/537.36 (KHTML, like Gecko) Chrome/108.0.0.0 Safari/537.36" etag="lht7ef-OiTI6zGwZrZUi" version="20.7.4" type="github">
  <diagram id="YM8jFS1B4BUcwMTzeeO8" name="Диаграмма доставки суши">
    <mxGraphModel dx="607" dy="796" grid="1" gridSize="10" guides="1" tooltips="1" connect="1" arrows="1" fold="1" page="1" pageScale="1" pageWidth="827" pageHeight="1169" math="0" shadow="0">
      <root>
        <mxCell id="0" />
        <mxCell id="1" parent="0" />
        <mxCell id="Ay6QxPf1kaQuGRiXp0Ti-1" value=" User" style="shape=table;startSize=30;container=1;collapsible=1;childLayout=tableLayout;fixedRows=1;rowLines=0;fontStyle=1;align=center;resizeLast=1;comic=0;strokeWidth=2;fontSize=15;fillColor=#ADC96D;strokeColor=#414D2B;fontFamily=Garamond;labelBorderColor=none;labelBackgroundColor=none;html=1;top=1;bottom=1;" parent="1" vertex="1">
          <mxGeometry x="960" y="260" width="180" height="300" as="geometry" />
        </mxCell>
        <mxCell id="Ay6QxPf1kaQuGRiXp0Ti-2" value="" style="shape=tableRow;horizontal=0;startSize=0;swimlaneHead=0;swimlaneBody=0;fillColor=default;collapsible=0;dropTarget=0;points=[[0,0.5],[1,0.5]];portConstraint=eastwest;top=0;left=1;right=0;bottom=1;comic=0;strokeWidth=1;fontSize=12;strokeColor=#000000;fontColor=#1A1A1A;fontStyle=0;fontFamily=Garamond;align=left;labelBackgroundColor=none;" parent="Ay6QxPf1kaQuGRiXp0Ti-1" vertex="1">
          <mxGeometry y="30" width="180" height="30" as="geometry" />
        </mxCell>
        <mxCell id="Ay6QxPf1kaQuGRiXp0Ti-3" value="PK" style="shape=partialRectangle;connectable=0;fillColor=#C8DB86;top=0;left=1;bottom=1;right=0;fontStyle=1;overflow=hidden;comic=0;strokeWidth=1;fontSize=12;strokeColor=#000000;fontColor=#1A1A1A;fontFamily=Garamond;align=center;labelBackgroundColor=none;" parent="Ay6QxPf1kaQuGRiXp0Ti-2" vertex="1">
          <mxGeometry width="30" height="30" as="geometry">
            <mxRectangle width="30" height="30" as="alternateBounds" />
          </mxGeometry>
        </mxCell>
        <mxCell id="Ay6QxPf1kaQuGRiXp0Ti-4" value="ID_ User" style="shape=partialRectangle;connectable=0;fillColor=#E8FF9C;top=0;left=1;bottom=1;right=1;align=left;spacingLeft=6;fontStyle=0;overflow=hidden;comic=0;strokeWidth=1;fontSize=12;strokeColor=#000000;fontColor=#1A1A1A;fontFamily=Garamond;labelBackgroundColor=none;" parent="Ay6QxPf1kaQuGRiXp0Ti-2" vertex="1">
          <mxGeometry x="30" width="150" height="30" as="geometry">
            <mxRectangle width="150" height="30" as="alternateBounds" />
          </mxGeometry>
        </mxCell>
        <mxCell id="zTm90ehCZbVkgFQ0iNH6-1" style="shape=tableRow;horizontal=0;startSize=0;swimlaneHead=0;swimlaneBody=0;fillColor=default;collapsible=0;dropTarget=0;points=[[0,0.5],[1,0.5]];portConstraint=eastwest;top=0;left=1;right=0;bottom=1;comic=0;strokeWidth=1;fontSize=12;strokeColor=#000000;fontColor=#1A1A1A;fontFamily=Garamond;align=left;labelBackgroundColor=none;" parent="Ay6QxPf1kaQuGRiXp0Ti-1" vertex="1">
          <mxGeometry y="60" width="180" height="30" as="geometry" />
        </mxCell>
        <mxCell id="zTm90ehCZbVkgFQ0iNH6-2" style="shape=partialRectangle;connectable=0;fillColor=#C8DB86;top=0;left=1;bottom=1;right=0;editable=1;overflow=hidden;comic=0;strokeWidth=1;fontSize=12;strokeColor=#000000;fontColor=#1A1A1A;fontFamily=Garamond;align=center;fontStyle=1;labelBackgroundColor=none;" parent="zTm90ehCZbVkgFQ0iNH6-1" vertex="1">
          <mxGeometry width="30" height="30" as="geometry">
            <mxRectangle width="30" height="30" as="alternateBounds" />
          </mxGeometry>
        </mxCell>
        <mxCell id="zTm90ehCZbVkgFQ0iNH6-3" value="ID_Order" style="shape=partialRectangle;connectable=0;fillColor=#E8FF9C;top=0;left=1;bottom=1;right=1;align=left;spacingLeft=6;overflow=hidden;comic=0;strokeWidth=1;fontSize=12;strokeColor=#414D2B;fontColor=#1A1A1A;fontFamily=Garamond;labelBackgroundColor=none;" parent="zTm90ehCZbVkgFQ0iNH6-1" vertex="1">
          <mxGeometry x="30" width="150" height="30" as="geometry">
            <mxRectangle width="150" height="30" as="alternateBounds" />
          </mxGeometry>
        </mxCell>
        <mxCell id="xfTA-OZh6lAWpwLBkn4V-1" style="shape=tableRow;horizontal=0;startSize=0;swimlaneHead=0;swimlaneBody=0;fillColor=default;collapsible=0;dropTarget=0;points=[[0,0.5],[1,0.5]];portConstraint=eastwest;top=0;left=1;right=0;bottom=1;comic=0;strokeWidth=1;fontSize=12;strokeColor=#000000;fontColor=#1A1A1A;fontFamily=Garamond;align=left;labelBackgroundColor=none;" parent="Ay6QxPf1kaQuGRiXp0Ti-1" vertex="1">
          <mxGeometry y="90" width="180" height="30" as="geometry" />
        </mxCell>
        <mxCell id="xfTA-OZh6lAWpwLBkn4V-2" style="shape=partialRectangle;connectable=0;fillColor=#C8DB86;top=0;left=1;bottom=1;right=0;editable=1;overflow=hidden;comic=0;strokeWidth=1;fontSize=12;strokeColor=#000000;fontColor=#1A1A1A;fontFamily=Garamond;align=center;fontStyle=1;labelBackgroundColor=none;" parent="xfTA-OZh6lAWpwLBkn4V-1" vertex="1">
          <mxGeometry width="30" height="30" as="geometry">
            <mxRectangle width="30" height="30" as="alternateBounds" />
          </mxGeometry>
        </mxCell>
        <mxCell id="xfTA-OZh6lAWpwLBkn4V-3" value="ID_Role" style="shape=partialRectangle;connectable=0;fillColor=#E8FF9C;top=0;left=1;bottom=1;right=1;align=left;spacingLeft=6;overflow=hidden;comic=0;strokeWidth=1;fontSize=12;strokeColor=#414D2B;fontColor=#1A1A1A;fontFamily=Garamond;labelBackgroundColor=none;" parent="xfTA-OZh6lAWpwLBkn4V-1" vertex="1">
          <mxGeometry x="30" width="150" height="30" as="geometry">
            <mxRectangle width="150" height="30" as="alternateBounds" />
          </mxGeometry>
        </mxCell>
        <mxCell id="FxHjKDx9g6CMK3Ptwjjo-10" style="shape=tableRow;horizontal=0;startSize=0;swimlaneHead=0;swimlaneBody=0;fillColor=default;collapsible=0;dropTarget=0;points=[[0,0.5],[1,0.5]];portConstraint=eastwest;top=0;left=1;right=0;bottom=1;comic=0;strokeWidth=1;fontSize=12;strokeColor=#000000;fontColor=#1A1A1A;fontFamily=Garamond;align=left;labelBackgroundColor=none;" parent="Ay6QxPf1kaQuGRiXp0Ti-1" vertex="1">
          <mxGeometry y="120" width="180" height="30" as="geometry" />
        </mxCell>
        <mxCell id="FxHjKDx9g6CMK3Ptwjjo-11" style="shape=partialRectangle;connectable=0;fillColor=#C8DB86;top=0;left=1;bottom=1;right=0;editable=1;overflow=hidden;comic=0;strokeWidth=1;fontSize=12;strokeColor=#000000;fontColor=#1A1A1A;fontFamily=Garamond;align=center;fontStyle=1;labelBackgroundColor=none;" parent="FxHjKDx9g6CMK3Ptwjjo-10" vertex="1">
          <mxGeometry width="30" height="30" as="geometry">
            <mxRectangle width="30" height="30" as="alternateBounds" />
          </mxGeometry>
        </mxCell>
        <mxCell id="FxHjKDx9g6CMK3Ptwjjo-12" value="FIO" style="shape=partialRectangle;connectable=0;fillColor=#E8FF9C;top=0;left=1;bottom=1;right=1;align=left;spacingLeft=6;overflow=hidden;comic=0;strokeWidth=1;fontSize=12;strokeColor=#414D2B;fontColor=#1A1A1A;fontFamily=Garamond;labelBackgroundColor=none;" parent="FxHjKDx9g6CMK3Ptwjjo-10" vertex="1">
          <mxGeometry x="30" width="150" height="30" as="geometry">
            <mxRectangle width="150" height="30" as="alternateBounds" />
          </mxGeometry>
        </mxCell>
        <mxCell id="Ay6QxPf1kaQuGRiXp0Ti-5" value="" style="shape=tableRow;horizontal=0;startSize=0;swimlaneHead=0;swimlaneBody=0;fillColor=default;collapsible=0;dropTarget=0;points=[[0,0.5],[1,0.5]];portConstraint=eastwest;top=0;left=1;right=0;bottom=1;comic=0;strokeWidth=1;fontSize=12;strokeColor=#000000;fontColor=#1A1A1A;fontFamily=Garamond;align=left;labelBackgroundColor=none;" parent="Ay6QxPf1kaQuGRiXp0Ti-1" vertex="1">
          <mxGeometry y="150" width="180" height="30" as="geometry" />
        </mxCell>
        <mxCell id="Ay6QxPf1kaQuGRiXp0Ti-6" value="" style="shape=partialRectangle;connectable=0;fillColor=#C8DB86;top=0;left=1;bottom=1;right=0;editable=1;overflow=hidden;comic=0;strokeWidth=1;fontSize=12;strokeColor=#000000;fontColor=#1A1A1A;fontFamily=Garamond;align=center;fontStyle=1;labelBackgroundColor=none;" parent="Ay6QxPf1kaQuGRiXp0Ti-5" vertex="1">
          <mxGeometry width="30" height="30" as="geometry">
            <mxRectangle width="30" height="30" as="alternateBounds" />
          </mxGeometry>
        </mxCell>
        <mxCell id="Ay6QxPf1kaQuGRiXp0Ti-7" value="Login" style="shape=partialRectangle;connectable=0;fillColor=#E8FF9C;top=0;left=1;bottom=1;right=1;align=left;spacingLeft=6;overflow=hidden;comic=0;strokeWidth=1;fontSize=12;strokeColor=#414D2B;fontColor=#1A1A1A;fontFamily=Garamond;labelBackgroundColor=none;" parent="Ay6QxPf1kaQuGRiXp0Ti-5" vertex="1">
          <mxGeometry x="30" width="150" height="30" as="geometry">
            <mxRectangle width="150" height="30" as="alternateBounds" />
          </mxGeometry>
        </mxCell>
        <mxCell id="Ay6QxPf1kaQuGRiXp0Ti-8" value="" style="shape=tableRow;horizontal=0;startSize=0;swimlaneHead=0;swimlaneBody=0;fillColor=default;collapsible=0;dropTarget=0;points=[[0,0.5],[1,0.5]];portConstraint=eastwest;top=0;left=1;right=0;bottom=1;comic=0;strokeWidth=1;fontSize=12;strokeColor=#000000;fontColor=#1A1A1A;fontFamily=Garamond;align=left;labelBackgroundColor=none;" parent="Ay6QxPf1kaQuGRiXp0Ti-1" vertex="1">
          <mxGeometry y="180" width="180" height="30" as="geometry" />
        </mxCell>
        <mxCell id="Ay6QxPf1kaQuGRiXp0Ti-9" value="" style="shape=partialRectangle;connectable=0;fillColor=#C8DB86;top=0;left=1;bottom=1;right=0;editable=1;overflow=hidden;comic=0;strokeWidth=1;fontSize=12;strokeColor=#000000;fontColor=#1A1A1A;fontFamily=Garamond;align=center;fontStyle=1;labelBackgroundColor=none;" parent="Ay6QxPf1kaQuGRiXp0Ti-8" vertex="1">
          <mxGeometry width="30" height="30" as="geometry">
            <mxRectangle width="30" height="30" as="alternateBounds" />
          </mxGeometry>
        </mxCell>
        <mxCell id="Ay6QxPf1kaQuGRiXp0Ti-10" value="Password" style="shape=partialRectangle;connectable=0;fillColor=#E8FF9C;top=0;left=1;bottom=1;right=1;align=left;spacingLeft=6;overflow=hidden;comic=0;strokeWidth=1;fontSize=12;strokeColor=#414D2B;fontColor=#1A1A1A;fontFamily=Garamond;labelBackgroundColor=none;" parent="Ay6QxPf1kaQuGRiXp0Ti-8" vertex="1">
          <mxGeometry x="30" width="150" height="30" as="geometry">
            <mxRectangle width="150" height="30" as="alternateBounds" />
          </mxGeometry>
        </mxCell>
        <mxCell id="FxHjKDx9g6CMK3Ptwjjo-7" style="shape=tableRow;horizontal=0;startSize=0;swimlaneHead=0;swimlaneBody=0;fillColor=default;collapsible=0;dropTarget=0;points=[[0,0.5],[1,0.5]];portConstraint=eastwest;top=0;left=1;right=0;bottom=1;comic=0;strokeWidth=1;fontSize=12;strokeColor=#000000;fontColor=#1A1A1A;fontFamily=Garamond;align=left;labelBackgroundColor=none;" parent="Ay6QxPf1kaQuGRiXp0Ti-1" vertex="1">
          <mxGeometry y="210" width="180" height="30" as="geometry" />
        </mxCell>
        <mxCell id="FxHjKDx9g6CMK3Ptwjjo-8" style="shape=partialRectangle;connectable=0;fillColor=#C8DB86;top=0;left=1;bottom=1;right=0;editable=1;overflow=hidden;comic=0;strokeWidth=1;fontSize=12;strokeColor=#000000;fontColor=#1A1A1A;fontFamily=Garamond;align=center;fontStyle=1;labelBackgroundColor=none;" parent="FxHjKDx9g6CMK3Ptwjjo-7" vertex="1">
          <mxGeometry width="30" height="30" as="geometry">
            <mxRectangle width="30" height="30" as="alternateBounds" />
          </mxGeometry>
        </mxCell>
        <mxCell id="FxHjKDx9g6CMK3Ptwjjo-9" value="Mail" style="shape=partialRectangle;connectable=0;fillColor=#E8FF9C;top=0;left=1;bottom=1;right=1;align=left;spacingLeft=6;overflow=hidden;comic=0;strokeWidth=1;fontSize=12;strokeColor=#414D2B;fontColor=#1A1A1A;fontFamily=Garamond;labelBackgroundColor=none;" parent="FxHjKDx9g6CMK3Ptwjjo-7" vertex="1">
          <mxGeometry x="30" width="150" height="30" as="geometry">
            <mxRectangle width="150" height="30" as="alternateBounds" />
          </mxGeometry>
        </mxCell>
        <mxCell id="FxHjKDx9g6CMK3Ptwjjo-4" style="shape=tableRow;horizontal=0;startSize=0;swimlaneHead=0;swimlaneBody=0;fillColor=default;collapsible=0;dropTarget=0;points=[[0,0.5],[1,0.5]];portConstraint=eastwest;top=0;left=1;right=0;bottom=1;comic=0;strokeWidth=1;fontSize=12;strokeColor=#000000;fontColor=#1A1A1A;fontFamily=Garamond;align=left;labelBackgroundColor=none;" parent="Ay6QxPf1kaQuGRiXp0Ti-1" vertex="1">
          <mxGeometry y="240" width="180" height="30" as="geometry" />
        </mxCell>
        <mxCell id="FxHjKDx9g6CMK3Ptwjjo-5" style="shape=partialRectangle;connectable=0;fillColor=#C8DB86;top=0;left=1;bottom=1;right=0;editable=1;overflow=hidden;comic=0;strokeWidth=1;fontSize=12;strokeColor=#000000;fontColor=#1A1A1A;fontFamily=Garamond;align=center;fontStyle=1;labelBackgroundColor=none;" parent="FxHjKDx9g6CMK3Ptwjjo-4" vertex="1">
          <mxGeometry width="30" height="30" as="geometry">
            <mxRectangle width="30" height="30" as="alternateBounds" />
          </mxGeometry>
        </mxCell>
        <mxCell id="FxHjKDx9g6CMK3Ptwjjo-6" value="PhoneNumber" style="shape=partialRectangle;connectable=0;fillColor=#E8FF9C;top=0;left=1;bottom=1;right=1;align=left;spacingLeft=6;overflow=hidden;comic=0;strokeWidth=1;fontSize=12;strokeColor=#414D2B;fontColor=#1A1A1A;fontFamily=Garamond;labelBackgroundColor=none;" parent="FxHjKDx9g6CMK3Ptwjjo-4" vertex="1">
          <mxGeometry x="30" width="150" height="30" as="geometry">
            <mxRectangle width="150" height="30" as="alternateBounds" />
          </mxGeometry>
        </mxCell>
        <mxCell id="FxHjKDx9g6CMK3Ptwjjo-1" style="shape=tableRow;horizontal=0;startSize=0;swimlaneHead=0;swimlaneBody=0;fillColor=default;collapsible=0;dropTarget=0;points=[[0,0.5],[1,0.5]];portConstraint=eastwest;top=0;left=1;right=0;bottom=1;comic=0;strokeWidth=1;fontSize=12;strokeColor=#000000;fontColor=#1A1A1A;fontFamily=Garamond;align=left;labelBackgroundColor=none;" parent="Ay6QxPf1kaQuGRiXp0Ti-1" vertex="1">
          <mxGeometry y="270" width="180" height="30" as="geometry" />
        </mxCell>
        <mxCell id="FxHjKDx9g6CMK3Ptwjjo-2" style="shape=partialRectangle;connectable=0;fillColor=#C8DB86;top=0;left=1;bottom=1;right=0;editable=1;overflow=hidden;comic=0;strokeWidth=1;fontSize=12;strokeColor=#000000;fontColor=#1A1A1A;fontFamily=Garamond;align=center;fontStyle=1;labelBackgroundColor=none;" parent="FxHjKDx9g6CMK3Ptwjjo-1" vertex="1">
          <mxGeometry width="30" height="30" as="geometry">
            <mxRectangle width="30" height="30" as="alternateBounds" />
          </mxGeometry>
        </mxCell>
        <mxCell id="FxHjKDx9g6CMK3Ptwjjo-3" value="Adress" style="shape=partialRectangle;connectable=0;fillColor=#E8FF9C;top=0;left=1;bottom=1;right=1;align=left;spacingLeft=6;overflow=hidden;comic=0;strokeWidth=1;fontSize=12;strokeColor=#414D2B;fontColor=#1A1A1A;fontFamily=Garamond;labelBackgroundColor=none;" parent="FxHjKDx9g6CMK3Ptwjjo-1" vertex="1">
          <mxGeometry x="30" width="150" height="30" as="geometry">
            <mxRectangle width="150" height="30" as="alternateBounds" />
          </mxGeometry>
        </mxCell>
        <mxCell id="zTm90ehCZbVkgFQ0iNH6-4" value="" style="edgeStyle=entityRelationEdgeStyle;fontSize=12;html=1;endArrow=ERoneToMany;rounded=0;fontColor=#4D9900;" parent="1" target="zTm90ehCZbVkgFQ0iNH6-1" edge="1">
          <mxGeometry width="100" height="100" relative="1" as="geometry">
            <mxPoint x="1220" y="195" as="sourcePoint" />
            <mxPoint x="1310" y="370" as="targetPoint" />
          </mxGeometry>
        </mxCell>
        <mxCell id="OqUp-WzPURU7yQJ0Y-U5-14" value="" style="edgeStyle=entityRelationEdgeStyle;fontSize=12;html=1;endArrow=ERoneToMany;rounded=0;strokeColor=#000000;fontColor=#4D9900;" parent="1" edge="1">
          <mxGeometry width="100" height="100" relative="1" as="geometry">
            <mxPoint x="1690" y="185" as="sourcePoint" />
            <mxPoint x="1400" y="225" as="targetPoint" />
          </mxGeometry>
        </mxCell>
        <mxCell id="OqUp-WzPURU7yQJ0Y-U5-15" value="" style="edgeStyle=entityRelationEdgeStyle;fontSize=12;html=1;endArrow=ERoneToMany;rounded=0;strokeColor=#000000;fontColor=#4D9900;" parent="1" source="OqUp-WzPURU7yQJ0Y-U5-17" edge="1">
          <mxGeometry width="100" height="100" relative="1" as="geometry">
            <mxPoint x="1420" y="570" as="sourcePoint" />
            <mxPoint x="1400" y="425" as="targetPoint" />
          </mxGeometry>
        </mxCell>
        <mxCell id="OqUp-WzPURU7yQJ0Y-U5-16" value="Shop" style="shape=table;startSize=30;container=1;collapsible=1;childLayout=tableLayout;fixedRows=1;rowLines=0;fontStyle=1;align=center;resizeLast=1;comic=0;strokeWidth=2;fontSize=15;fillColor=#ADC96D;strokeColor=#414D2B;fontFamily=Garamond;labelBorderColor=none;labelBackgroundColor=none;html=1;top=1;bottom=1;" parent="1" vertex="1">
          <mxGeometry x="1510" y="560" width="180" height="120" as="geometry" />
        </mxCell>
        <mxCell id="OqUp-WzPURU7yQJ0Y-U5-17" value="" style="shape=tableRow;horizontal=0;startSize=0;swimlaneHead=0;swimlaneBody=0;fillColor=default;collapsible=0;dropTarget=0;points=[[0,0.5],[1,0.5]];portConstraint=eastwest;top=0;left=1;right=0;bottom=1;comic=0;strokeWidth=1;fontSize=12;strokeColor=#000000;fontColor=#1A1A1A;fontStyle=0;fontFamily=Garamond;align=left;labelBackgroundColor=none;" parent="OqUp-WzPURU7yQJ0Y-U5-16" vertex="1">
          <mxGeometry y="30" width="180" height="30" as="geometry" />
        </mxCell>
        <mxCell id="OqUp-WzPURU7yQJ0Y-U5-18" value="PK" style="shape=partialRectangle;connectable=0;fillColor=#C8DB86;top=0;left=1;bottom=1;right=0;fontStyle=1;overflow=hidden;comic=0;strokeWidth=1;fontSize=12;strokeColor=#000000;fontColor=#1A1A1A;fontFamily=Garamond;align=center;labelBackgroundColor=none;" parent="OqUp-WzPURU7yQJ0Y-U5-17" vertex="1">
          <mxGeometry width="30" height="30" as="geometry">
            <mxRectangle width="30" height="30" as="alternateBounds" />
          </mxGeometry>
        </mxCell>
        <mxCell id="OqUp-WzPURU7yQJ0Y-U5-19" value="ID_ Shop" style="shape=partialRectangle;connectable=0;fillColor=#E8FF9C;top=0;left=1;bottom=1;right=1;align=left;spacingLeft=6;fontStyle=0;overflow=hidden;comic=0;strokeWidth=1;fontSize=12;strokeColor=#414D2B;fontColor=#1A1A1A;fontFamily=Garamond;labelBackgroundColor=none;" parent="OqUp-WzPURU7yQJ0Y-U5-17" vertex="1">
          <mxGeometry x="30" width="150" height="30" as="geometry">
            <mxRectangle width="150" height="30" as="alternateBounds" />
          </mxGeometry>
        </mxCell>
        <mxCell id="OqUp-WzPURU7yQJ0Y-U5-20" style="shape=tableRow;horizontal=0;startSize=0;swimlaneHead=0;swimlaneBody=0;fillColor=default;collapsible=0;dropTarget=0;points=[[0,0.5],[1,0.5]];portConstraint=eastwest;top=0;left=1;right=0;bottom=1;comic=0;strokeWidth=1;fontSize=12;strokeColor=#000000;fontColor=#1A1A1A;fontFamily=Garamond;align=left;labelBackgroundColor=none;" parent="OqUp-WzPURU7yQJ0Y-U5-16" vertex="1">
          <mxGeometry y="60" width="180" height="30" as="geometry" />
        </mxCell>
        <mxCell id="OqUp-WzPURU7yQJ0Y-U5-21" style="shape=partialRectangle;connectable=0;fillColor=#C8DB86;top=0;left=1;bottom=1;right=0;editable=1;overflow=hidden;comic=0;strokeWidth=1;fontSize=12;strokeColor=#000000;fontColor=#1A1A1A;fontFamily=Garamond;align=center;fontStyle=1;labelBackgroundColor=none;" parent="OqUp-WzPURU7yQJ0Y-U5-20" vertex="1">
          <mxGeometry width="30" height="30" as="geometry">
            <mxRectangle width="30" height="30" as="alternateBounds" />
          </mxGeometry>
        </mxCell>
        <mxCell id="OqUp-WzPURU7yQJ0Y-U5-22" value="Title" style="shape=partialRectangle;connectable=0;fillColor=#E8FF9C;top=0;left=1;bottom=1;right=1;align=left;spacingLeft=6;overflow=hidden;comic=0;strokeWidth=1;fontSize=12;strokeColor=#414D2B;fontColor=#1A1A1A;fontFamily=Garamond;labelBackgroundColor=none;" parent="OqUp-WzPURU7yQJ0Y-U5-20" vertex="1">
          <mxGeometry x="30" width="150" height="30" as="geometry">
            <mxRectangle width="150" height="30" as="alternateBounds" />
          </mxGeometry>
        </mxCell>
        <mxCell id="OqUp-WzPURU7yQJ0Y-U5-23" style="shape=tableRow;horizontal=0;startSize=0;swimlaneHead=0;swimlaneBody=0;fillColor=default;collapsible=0;dropTarget=0;points=[[0,0.5],[1,0.5]];portConstraint=eastwest;top=0;left=1;right=0;bottom=1;comic=0;strokeWidth=1;fontSize=12;strokeColor=#000000;fontColor=#1A1A1A;fontFamily=Garamond;align=left;labelBackgroundColor=none;" parent="OqUp-WzPURU7yQJ0Y-U5-16" vertex="1">
          <mxGeometry y="90" width="180" height="30" as="geometry" />
        </mxCell>
        <mxCell id="OqUp-WzPURU7yQJ0Y-U5-24" style="shape=partialRectangle;connectable=0;fillColor=#C8DB86;top=0;left=1;bottom=1;right=0;editable=1;overflow=hidden;comic=0;strokeWidth=1;fontSize=12;strokeColor=#000000;fontColor=#1A1A1A;fontFamily=Garamond;align=center;fontStyle=1;labelBackgroundColor=none;" parent="OqUp-WzPURU7yQJ0Y-U5-23" vertex="1">
          <mxGeometry width="30" height="30" as="geometry">
            <mxRectangle width="30" height="30" as="alternateBounds" />
          </mxGeometry>
        </mxCell>
        <mxCell id="OqUp-WzPURU7yQJ0Y-U5-25" value="Adress" style="shape=partialRectangle;connectable=0;fillColor=#E8FF9C;top=0;left=1;bottom=1;right=1;align=left;spacingLeft=6;overflow=hidden;comic=0;strokeWidth=1;fontSize=12;strokeColor=#414D2B;fontColor=#1A1A1A;fontFamily=Garamond;labelBackgroundColor=none;" parent="OqUp-WzPURU7yQJ0Y-U5-23" vertex="1">
          <mxGeometry x="30" width="150" height="30" as="geometry">
            <mxRectangle width="150" height="30" as="alternateBounds" />
          </mxGeometry>
        </mxCell>
        <mxCell id="xfTA-OZh6lAWpwLBkn4V-4" value="" style="edgeStyle=entityRelationEdgeStyle;fontSize=12;html=1;endArrow=ERoneToMany;rounded=0;strokeColor=#000000;fontColor=#4D9900;" parent="1" target="xfTA-OZh6lAWpwLBkn4V-1" edge="1">
          <mxGeometry width="100" height="100" relative="1" as="geometry">
            <mxPoint x="1210" y="605" as="sourcePoint" />
            <mxPoint x="1390" y="570" as="targetPoint" />
          </mxGeometry>
        </mxCell>
        <mxCell id="tio5rZ1Yk2gzH_p3PPzW-11" value="" style="edgeStyle=entityRelationEdgeStyle;fontSize=12;html=1;endArrow=ERoneToMany;rounded=0;fontColor=#4D9900;" parent="1" edge="1">
          <mxGeometry width="100" height="100" relative="1" as="geometry">
            <mxPoint x="1690" y="335" as="sourcePoint" />
            <mxPoint x="1690" y="445" as="targetPoint" />
          </mxGeometry>
        </mxCell>
        <mxCell id="XHVBuRFozPUEUxD5YGxB-17" value="" style="fontSize=12;html=1;endArrow=ERoneToMany;rounded=0;exitX=1;exitY=0.5;exitDx=0;exitDy=0;edgeStyle=entityRelationEdgeStyle;" parent="1" edge="1">
          <mxGeometry width="100" height="100" relative="1" as="geometry">
            <mxPoint x="1400" y="225" as="sourcePoint" />
            <mxPoint x="1400" y="395" as="targetPoint" />
          </mxGeometry>
        </mxCell>
      </root>
    </mxGraphModel>
  </diagram>
</mxfile>
